# xmcd
#
# Track frame offsets:
#	150
#	17112
#	32057
#	44902
#	59187
#	73617
#	84167
#	95127
#	108295
#	119622
#	133627
#	147562
#	164457
#
# Disc length: 2342 seconds
#
# Revision: 0
# Processed by: cddbd v1.5.2PL0 Copyright (c) Steve Scherf et al.
# Submitted via: EasyCDDAExtractor 16.0.8.2
#
DISCID=c709240d
DTITLE=Συλλογικός δίσκος - Τα ρεμπέτικα-Dv
DYEAR=1997
DGENRE=Ποικίλη
TTITLE0=Ζαγοραίος Σπύρος - Θα πεθάνω γλυκειά μου αγάπη [Δ. Γκούτης]
TTITLE1=Μάριος - Αμφιβολίες [Γ. Μπιθικώτσης]
TTITLE2=Ζαγοραίος Σπύρος - Αγωνίες [Θ. Δερβενιώτης]
TTITLE3=Περπινιάδης Βαγγέλης - Μη μού λέτε λόγια [Ε. Μαράβας-Απ. Καλδάρας]
TTITLE4=Περγιάλης Νίκος - Πάλι θα τα ξαναπούμε [Ν. Περγιάλης]
TTITLE5=Περγιάλης Νίκος - Ντερμπεντέρισσα κυρά [Ν. Περγιάλης]
TTITLE6=Νικολαΐδης Απόστολος - Το πορτοφόλι [Μ. Βαμβακάρης]
TTITLE7=Νικολαΐδης Απόστολος - Πέντε ποντικοί βαρβάτοι [Απ. Νικολαΐδης]
TTITLE8=Περγιάλης Νίκος - Είμαι μάγκας και ρεμπέτης [Ν. Περγιάλης]
TTITLE9=Περγιάλης Νίκος - Στον καφενέ τού Μανωλά [Ν. Περγιάλης]
TTITLE10=Παγιουμτζής Στράτος - Τι σού λέει η μάννα σου για μένα [Κ. Σκαρβέλης]
TTITLE11=Ζακυνθηνάκης Ανδρέας - Εχθές αργά το δειλινό [Κ. Μάνεσης-Γ. Παπαϊωάνν
TTITLE11=ου]
TTITLE12=Πάνου Πόλυ-Μάριος - Σ' αγαπώ να μη σε νοιάζει [Γ. Παπαϊωάννου]
EXTD=
EXTT0=
EXTT1=
EXTT2=
EXTT3=
EXTT4=
EXTT5=
EXTT6=
EXTT7=
EXTT8=
EXTT9=
EXTT10=
EXTT11=
EXTT12=
PLAYORDER=
